<svg xmlns="http://www.w3.org/2000/svg" viewBox="0 0 167 173.51"><defs><style>.cls-1{fill:none;}.cls-2{fill:#4f39f6;}.cls-3{fill:#fff;}</style></defs><g id="Camada_2" data-name="Camada 2"><g id="Camada_2-2" data-name="Camada 2"><g id="calendário_roxo" data-name="calendário roxo"><path class="cls-1" d="M12.32,65.12a12,12,0,0,1,.91-4.57,12.05,12.05,0,0,0-1,4.74v79.92a12.09,12.09,0,0,0,1,4.74,12,12,0,0,1-.91-4.58Z"/><path class="cls-2" d="M41.79,38H47.2a8.73,8.73,0,0,0,5.94-8.35v-21A8.71,8.71,0,0,0,46.64,0l-.21,0H42.49a8.68,8.68,0,0,0-6.7,8.45V29.71A8.66,8.66,0,0,0,41.79,38Z"/><path class="cls-2" d="M120.41,38h5.41a8.54,8.54,0,0,0,5.39-5.29V5.5a8.51,8.51,0,0,0-6-5.46l-.21,0h-3.94a8.68,8.68,0,0,0-6.7,8.45V29.71A8.66,8.66,0,0,0,120.41,38Z"/><path class="cls-3" d="M141.39,53.16H24.4a12.13,12.13,0,0,0-11.17,7.39,12,12,0,0,0-.91,4.57v80.25a12,12,0,0,0,12.08,12h117a12.13,12.13,0,0,0,12.13-12.13V65.29A12.13,12.13,0,0,0,141.39,53.16Z"/><path class="cls-2" d="M141.65,22.23h-5.56v7.09a13.28,13.28,0,1,1-26.56.26V22.23H58v7.09a13.29,13.29,0,1,1-26.57.26V22.23H25.37A25.37,25.37,0,0,0,0,47.6V148.13a25.38,25.38,0,0,0,25.38,25.38H141.63A25.37,25.37,0,0,0,167,148.13V47.64A25.41,25.41,0,0,0,141.65,22.23Zm11.87,123a12.13,12.13,0,0,1-12.13,12.13H24.4a12.12,12.12,0,0,1-12.13-12.13V65.29A12.12,12.12,0,0,1,24.4,53.16h117a12.13,12.13,0,0,1,12.13,12.13Z"/><path class="cls-1" d="M38.12,86.49a2.33,2.33,0,0,1-.59-.08L27.72,83.5v7.84c0,2.39,5.39,3.47,10.4,3.47s10.4-1.08,10.4-3.47V83.5l-9.81,2.91A2.33,2.33,0,0,1,38.12,86.49Z"/><path class="cls-1" d="M38.53,72.55a.68.68,0,0,0-.4,0L19.29,78.13a.54.54,0,0,0-.2.1.75.75,0,0,0-.16.15.79.79,0,0,0-.14.42.57.57,0,0,0,0,.22.54.54,0,0,0,.1.2.77.77,0,0,0,.36.25l18.84,5.58a.68.68,0,0,0,.4,0L52.25,81v9.69a.63.63,0,0,0-.21,0,.57.57,0,0,0-.21.13.65.65,0,0,0-.15.18.73.73,0,0,0-.09.23l-.69,4.19a.76.76,0,0,0,0,.15.77.77,0,0,0,0,.15.59.59,0,0,0,.06.14.57.57,0,0,0,.08.13l.11.1a.57.57,0,0,0,.13.08l.14,0s.1,0,.15-.11h2.8c0,.12.1.12.15.11l.14,0,.13-.08.11-.1a.57.57,0,0,0,.08-.13.59.59,0,0,0,.06-.14.77.77,0,0,0,0-.15.76.76,0,0,0,0-.15l-.69-4.19a1.09,1.09,0,0,0-.09-.23.65.65,0,0,0-.15-.18.67.67,0,0,0-.21-.13c-.08,0-.16,0-.07,0V80.56l3.51-1.09a.63.63,0,0,0,.2-.1.46.46,0,0,0,.16-.15.56.56,0,0,0,.11-.2.83.83,0,0,0,0-.22.78.78,0,0,0,0-.22.56.56,0,0,0-.11-.2.46.46,0,0,0-.16-.15.47.47,0,0,0-.2-.1Z"/><rect class="cls-2" x="108.54" y="63.17" width="40.07" height="40.07" rx="3.22"/><rect class="cls-2" x="63.46" y="108.25" width="40.07" height="40.07" rx="3.22"/><rect class="cls-2" x="63.46" y="63.17" width="40.07" height="40.07" rx="3.22"/><rect class="cls-2" x="18.39" y="108.25" width="40.07" height="40.07" rx="3.22"/><path class="cls-2" d="M55.24,63.17H21.61a3.22,3.22,0,0,0-3.22,3.22V100a3.22,3.22,0,0,0,3.22,3.22H55.24A3.22,3.22,0,0,0,58.46,100V66.39A3.23,3.23,0,0,0,55.24,63.17ZM48.52,91.34c0,2.39-5.39,3.47-10.4,3.47s-10.4-1.08-10.4-3.47V83.5l9.81,2.91a2.22,2.22,0,0,0,1.18,0l9.81-2.91Zm9.2-13a.56.56,0,0,1,.11.2.78.78,0,0,1,0,.22.83.83,0,0,1,0,.22.56.56,0,0,1-.11.2.46.46,0,0,1-.16.15.63.63,0,0,1-.2.1l-3.51,1.09v10.1c-.09,0,0,0,.07,0a.67.67,0,0,1,.21.13.65.65,0,0,1,.15.18,1.09,1.09,0,0,1,.09.23l.69,4.19a.76.76,0,0,1,0,.15.77.77,0,0,1,0,.15.59.59,0,0,1-.06.14.57.57,0,0,1-.08.13l-.11.1-.13.08-.14,0c-.05,0-.1,0-.15-.11h-2.8c0,.12-.1.12-.15.11l-.14,0a.57.57,0,0,1-.13-.08l-.11-.1a.57.57,0,0,1-.08-.13.59.59,0,0,1-.06-.14.77.77,0,0,1,0-.15.76.76,0,0,1,0-.15l.69-4.19a.73.73,0,0,1,.09-.23.65.65,0,0,1,.15-.18A.57.57,0,0,1,52,90.7a.63.63,0,0,1,.21,0V81L38.53,85.05a.68.68,0,0,1-.4,0L19.29,79.47a.77.77,0,0,1-.36-.25.54.54,0,0,1-.1-.2.57.57,0,0,1,0-.22.79.79,0,0,1,.14-.42.75.75,0,0,1,.16-.15.54.54,0,0,1,.2-.1l18.84-5.58a.68.68,0,0,1,.4,0l18.83,5.58a.47.47,0,0,1,.2.1A.46.46,0,0,1,57.72,78.38Z"/><path class="cls-2" d="M145.39,108.25H111.76a3.22,3.22,0,0,0-3.22,3.22v11.1l.24,0a3.44,3.44,0,0,1,1.85,1l5.19,5.19,4.36,4.38c.5.5,1,1,1.5,1.55l.64-.62,6.13-6.14c2-2,4-4,5.93-5.93l5.7-5.69c1-1,2.06-2.1,3.13-3.11a9,9,0,0,1,1.46-1,2.39,2.39,0,0,1,1.54-.17,4,4,0,0,1,.93.23,3,3,0,0,1,.47.25,1.21,1.21,0,0,0,.14.1,2.68,2.68,0,0,1,.86.61v-1.74A3.22,3.22,0,0,0,145.39,108.25Z"/><path class="cls-2" d="M147.53,119.08l-5.82,5.82-7.24,7.22-5.74,5.75-4.37,4.38a3.67,3.67,0,0,1-1.79,1,5,5,0,0,1-.78.06,3.45,3.45,0,0,1-2.78-1.15l-10.47-10.46V145.1a3.22,3.22,0,0,0,3.22,3.22h33.63a3.22,3.22,0,0,0,3.22-3.22V118.15l-.16.11C148.14,118.53,147.82,118.79,147.53,119.08Z"/></g></g></g></svg>