<svg xmlns="http://www.w3.org/2000/svg" viewBox="0 0 445.36 462.59"><defs><style>.cls-1{fill:#fff;}.cls-2{fill:none;}.cls-3,.cls-4{fill:#721cb8;}.cls-3{stroke:#fff;stroke-miterlimit:10;stroke-width:3px;}</style></defs><g id="Camada_2" data-name="Camada 2"><g id="Camada_2-2" data-name="Camada 2"><g id="calendário_roxo" data-name="calendário roxo"><rect class="cls-1" x="34.06" y="142.03" width="374" height="275" rx="25.33"/></g><g id="calendario_branco" data-name="calendario branco"><rect class="cls-2" x="34" y="142.3" width="374.14" height="275.96" rx="32.14"/><path class="cls-3" d="M125,1.6l-.55-.1H114.06A23,23,0,0,0,96.29,23.88V80.19A23,23,0,0,0,112.2,102h14.34a23.15,23.15,0,0,0,15.71-22.13V24.17C142.25,13.63,135.28,4.1,125,1.6Z"/><path class="cls-3" d="M333.29,1.6l-.57-.1H322.31a23,23,0,0,0-17.77,22.38V80.19A23,23,0,0,0,320.45,102h14.33a22.74,22.74,0,0,0,14.29-14V16.06A22.62,22.62,0,0,0,333.29,1.6Z"/><path class="cls-3" d="M443.86,393.88V127.68A67.29,67.29,0,0,0,376.7,60.39H362V79.16c0,20.78-17,37.57-37.73,36.07a35.39,35.39,0,0,1-32.64-35.37V60.39H155.18V79.16c0,20.78-17,37.57-37.74,36.07A35.4,35.4,0,0,1,84.8,79.86V60.39H68.7a67.2,67.2,0,0,0-67.2,67.2V393.88a67.21,67.21,0,0,0,67.21,67.21H376.64A67.22,67.22,0,0,0,443.86,393.88ZM34,386.13V174.44A32.14,32.14,0,0,1,66.14,142.3H376a32.13,32.13,0,0,1,32.13,32.14V386.13A32.12,32.12,0,0,1,376,418.26H66.14A32.13,32.13,0,0,1,34,386.13Z"/><path class="cls-2" d="M102.47,230.6a5.5,5.5,0,0,1-1.56-.22l-26-7.7v20.78c0,6.31,14.28,9.18,27.55,9.18S130,249.77,130,243.46V222.68l-26,7.7A5.5,5.5,0,0,1,102.47,230.6Z"/><path class="cls-2" d="M103.55,193.67a1.87,1.87,0,0,0-1,0L52.6,208.46a1.72,1.72,0,0,0-.53.25,1.68,1.68,0,0,0-.43.41,1.84,1.84,0,0,0-.27.52,2,2,0,0,0-.1.59,1.91,1.91,0,0,0,.1.58,1.72,1.72,0,0,0,.27.52,1.68,1.68,0,0,0,.43.41,1.74,1.74,0,0,0,.53.26l49.9,14.78a1.71,1.71,0,0,0,1,0L139.9,216v25.66a1.61,1.61,0,0,0-.55.11,1.74,1.74,0,0,0-.56.32,1.8,1.8,0,0,0-.41.5,1.94,1.94,0,0,0-.22.61l-1.84,11.09a1.8,1.8,0,0,0,0,.4,1.78,1.78,0,0,0,.07.39,1.74,1.74,0,0,0,.14.38,3.29,3.29,0,0,0,.23.33,1.5,1.5,0,0,0,.29.27,2.39,2.39,0,0,0,.34.21,1.71,1.71,0,0,0,.38.13c.13,0,.26,0,.4-.29h7.39c.13.33.27.32.4.29a1.71,1.71,0,0,0,.38-.13,2.39,2.39,0,0,0,.34-.21,1.86,1.86,0,0,0,.29-.27,3.29,3.29,0,0,0,.23-.33,1.74,1.74,0,0,0,.14-.38,1.78,1.78,0,0,0,.07-.39,2.69,2.69,0,0,0,0-.4l-1.84-11.09a1.94,1.94,0,0,0-.22-.61,2,2,0,0,0-.41-.5,1.85,1.85,0,0,0-.56-.32c-.21-.08-.42-.11-.18-.11V214.89l9.31-2.89a1.74,1.74,0,0,0,.53-.26,1.64,1.64,0,0,0,.42-.41,1.75,1.75,0,0,0,.28-.52,1.9,1.9,0,0,0,.09-.58,2,2,0,0,0-.09-.59,1.88,1.88,0,0,0-.28-.52,1.64,1.64,0,0,0-.42-.41,1.72,1.72,0,0,0-.53-.25Z"/><rect class="cls-4" x="289.01" y="168.84" width="106.14" height="106.14" rx="8.53"/><rect class="cls-4" x="169.61" y="288.24" width="106.14" height="106.14" rx="8.53"/><rect class="cls-4" x="169.61" y="168.84" width="106.14" height="106.14" rx="8.53"/><rect class="cls-4" x="50.2" y="288.24" width="106.14" height="106.14" rx="8.53"/><path class="cls-4" d="M147.81,168.84H58.73a8.52,8.52,0,0,0-8.53,8.53v89.08A8.53,8.53,0,0,0,58.73,275h89.08a8.53,8.53,0,0,0,8.53-8.53V177.37A8.52,8.52,0,0,0,147.81,168.84ZM130,243.46c0,6.31-14.27,9.18-27.54,9.18s-27.55-2.87-27.55-9.18V222.68l26,7.7a5.64,5.64,0,0,0,3.12,0l26-7.7Zm24.39-34.34a1.88,1.88,0,0,1,.28.52,2,2,0,0,1,.09.59,1.9,1.9,0,0,1-.09.58,1.75,1.75,0,0,1-.28.52,1.64,1.64,0,0,1-.42.41,1.74,1.74,0,0,1-.53.26l-9.31,2.89v26.76c-.24,0,0,0,.18.11a1.85,1.85,0,0,1,.56.32,2,2,0,0,1,.41.5,1.94,1.94,0,0,1,.22.61l1.84,11.09a2.69,2.69,0,0,1,0,.4,1.78,1.78,0,0,1-.07.39,1.74,1.74,0,0,1-.14.38,3.29,3.29,0,0,1-.23.33,1.86,1.86,0,0,1-.29.27,2.39,2.39,0,0,1-.34.21,1.71,1.71,0,0,1-.38.13c-.13,0-.27,0-.4-.29h-7.39c-.14.33-.27.32-.4.29a1.71,1.71,0,0,1-.38-.13,2.39,2.39,0,0,1-.34-.21,1.5,1.5,0,0,1-.29-.27,3.29,3.29,0,0,1-.23-.33,1.74,1.74,0,0,1-.14-.38,1.78,1.78,0,0,1-.07-.39,1.8,1.8,0,0,1,0-.4l1.84-11.09a1.94,1.94,0,0,1,.22-.61,1.8,1.8,0,0,1,.41-.5,1.74,1.74,0,0,1,.56-.32,1.61,1.61,0,0,1,.55-.11V216l-36.35,10.79a1.71,1.71,0,0,1-1,0L52.6,212a1.74,1.74,0,0,1-.53-.26,1.68,1.68,0,0,1-.43-.41,1.72,1.72,0,0,1-.27-.52,1.91,1.91,0,0,1-.1-.58,2,2,0,0,1,.1-.59,1.84,1.84,0,0,1,.27-.52,1.68,1.68,0,0,1,.43-.41,1.72,1.72,0,0,1,.53-.25l49.9-14.79a1.88,1.88,0,0,1,1,0l49.9,14.79a1.72,1.72,0,0,1,.53.25A1.64,1.64,0,0,1,154.4,209.12Z"/><path class="cls-4" d="M386.63,288.24H297.54a8.53,8.53,0,0,0-8.53,8.53v29.41c.21,0,.42,0,.63.05a8.89,8.89,0,0,1,4.9,2.7l13.75,13.74q5.77,5.81,11.54,11.6c1.32,1.33,2.61,2.69,4,4.1.65-.63,1.18-1.12,1.69-1.63q8.12-8.13,16.22-16.26l15.73-15.71,15.09-15.09c2.75-2.75,5.45-5.56,8.28-8.24a24.38,24.38,0,0,1,3.88-2.77c1.25-.79,2.71-.56,4.08-.45a10.13,10.13,0,0,1,2.45.62,6.6,6.6,0,0,1,1.26.66c.13.07.23.2.36.26a7.24,7.24,0,0,1,2.29,1.62v-4.61A8.52,8.52,0,0,0,386.63,288.24Z"/><path class="cls-4" d="M392.29,316.93q-7.73,7.69-15.43,15.41-9.57,9.56-19.16,19.12-7.62,7.6-15.22,15.24-5.79,5.81-11.58,11.6a9.91,9.91,0,0,1-4.72,2.71,11.88,11.88,0,0,1-2.07.15,9.2,9.2,0,0,1-7.37-3Q302.9,364.25,289,350.4v35.45a8.53,8.53,0,0,0,8.53,8.53h89.09a8.52,8.52,0,0,0,8.52-8.53v-71.4c-.14.1-.29.2-.42.31C393.89,315.46,393.06,316.16,392.29,316.93Z"/></g></g></g></svg>