<svg xmlns="http://www.w3.org/2000/svg" viewBox="0 0 166.71 173.2"><defs><style>.cls-1{fill:none;}.cls-2{fill:#fff;}</style></defs><g id="Camada_2" data-name="Camada 2"><g id="Camada_3" data-name="Camada 3"><g id="calendario_branco" data-name="calendario branco"><rect class="cls-1" x="12.25" y="53.06" width="141" height="104" rx="12.11"/><path class="cls-2" d="M46.55,0l-.2,0H42.42a8.66,8.66,0,0,0-6.7,8.43V29.66a8.66,8.66,0,0,0,6,8.23h5.4A8.72,8.72,0,0,0,53,29.55v-21A8.68,8.68,0,0,0,46.55,0Z"/><path class="cls-2" d="M125,0l-.21,0H120.9a8.66,8.66,0,0,0-6.69,8.43V29.66a8.65,8.65,0,0,0,6,8.23h5.4A8.55,8.55,0,0,0,131,32.6V5.49A8.49,8.49,0,0,0,125,0Z"/><path class="cls-2" d="M166.71,147.87V47.55A25.36,25.36,0,0,0,141.4,22.19h-5.54v7.08a13.27,13.27,0,1,1-26.53.26V22.19H57.91v7.08a13.26,13.26,0,1,1-26.52.26V22.19H25.33A25.33,25.33,0,0,0,0,47.52V147.87A25.33,25.33,0,0,0,25.33,173.2H141.38A25.33,25.33,0,0,0,166.71,147.87ZM12.25,145V65.17A12.11,12.11,0,0,1,24.36,53.06H141.14a12.11,12.11,0,0,1,12.11,12.11V145a12.11,12.11,0,0,1-12.11,12.11H24.36A12.11,12.11,0,0,1,12.25,145Z"/><path class="cls-1" d="M38.05,86.34a2.33,2.33,0,0,1-.59-.08l-9.79-2.91v7.83c0,2.38,5.38,3.46,10.38,3.46s10.38-1.08,10.38-3.46V83.35l-9.79,2.91A2.33,2.33,0,0,1,38.05,86.34Z"/><path class="cls-1" d="M38.46,72.42a.68.68,0,0,0-.4,0L19.26,78a.75.75,0,0,0-.2.1.57.57,0,0,0-.16.15.78.78,0,0,0-.11.2.83.83,0,0,0,0,.22.62.62,0,0,0,.14.42.57.57,0,0,0,.16.15.54.54,0,0,0,.2.1l18.8,5.57a.68.68,0,0,0,.4,0l13.7-4.07V90.5l-.21,0a.57.57,0,0,0-.21.13.93.93,0,0,0-.16.18,1,1,0,0,0-.08.23l-.69,4.18a.76.76,0,0,0,0,.15.77.77,0,0,0,0,.15.59.59,0,0,0,.06.14.57.57,0,0,0,.08.13.52.52,0,0,0,.11.1.57.57,0,0,0,.13.08l.14,0s.1,0,.15-.11h2.79c0,.12.1.12.15.11l.14,0a.57.57,0,0,0,.13-.08.52.52,0,0,0,.11-.1l.09-.13a.58.58,0,0,0,.05-.14l0-.15s0-.1,0-.15l-.7-4.18a.7.7,0,0,0-.08-.23.55.55,0,0,0-.16-.18.57.57,0,0,0-.21-.13c-.07,0-.15,0-.06,0V80.42l3.5-1.09a.47.47,0,0,0,.2-.1.46.46,0,0,0,.16-.15.62.62,0,0,0,.14-.42.83.83,0,0,0,0-.22.78.78,0,0,0-.11-.2.46.46,0,0,0-.16-.15.63.63,0,0,0-.2-.1Z"/><rect class="cls-2" x="108.35" y="63.06" width="40" height="40" rx="3.21"/><rect class="cls-2" x="63.35" y="108.06" width="40" height="40" rx="3.21"/><rect class="cls-2" x="63.35" y="63.06" width="40" height="40" rx="3.21"/><rect class="cls-2" x="18.35" y="108.06" width="40" height="40" rx="3.21"/><path class="cls-2" d="M55.14,63.06H21.57a3.22,3.22,0,0,0-3.22,3.22V99.85a3.22,3.22,0,0,0,3.22,3.21H55.14a3.21,3.21,0,0,0,3.21-3.21V66.28A3.22,3.22,0,0,0,55.14,63.06ZM48.43,91.18c0,2.38-5.38,3.46-10.38,3.46s-10.38-1.08-10.38-3.46V83.35l9.79,2.91a2.22,2.22,0,0,0,1.18,0l9.79-2.91Zm9.19-12.94a.78.78,0,0,1,.11.2.83.83,0,0,1,0,.22.62.62,0,0,1-.14.42.46.46,0,0,1-.16.15.47.47,0,0,1-.2.1l-3.5,1.09V90.5c-.09,0,0,0,.06,0a.57.57,0,0,1,.21.13.55.55,0,0,1,.16.18.7.7,0,0,1,.08.23l.7,4.18s0,.1,0,.15l0,.15a.58.58,0,0,1-.05.14l-.09.13a.52.52,0,0,1-.11.1.57.57,0,0,1-.13.08l-.14,0s-.1,0-.15-.11H51.49c-.05.12-.1.12-.15.11l-.14,0a.57.57,0,0,1-.13-.08.52.52,0,0,1-.11-.1.57.57,0,0,1-.08-.13.59.59,0,0,1-.06-.14.77.77,0,0,1,0-.15.76.76,0,0,1,0-.15l.69-4.18a1,1,0,0,1,.08-.23.93.93,0,0,1,.16-.18.57.57,0,0,1,.21-.13l.21,0V80.83L38.46,84.9a.68.68,0,0,1-.4,0l-18.8-5.57a.54.54,0,0,1-.2-.1.57.57,0,0,1-.16-.15.62.62,0,0,1-.14-.42.83.83,0,0,1,0-.22.78.78,0,0,1,.11-.2.57.57,0,0,1,.16-.15.75.75,0,0,1,.2-.1l18.8-5.57a.68.68,0,0,1,.4,0L57.26,78a.63.63,0,0,1,.2.1A.46.46,0,0,1,57.62,78.24Z"/><path class="cls-2" d="M145.14,108.06H111.57a3.22,3.22,0,0,0-3.22,3.22v11.08l.24,0a3.38,3.38,0,0,1,1.85,1c1.73,1.72,3.45,3.45,5.18,5.18L120,133c.5.5,1,1,1.5,1.54l.64-.61,6.11-6.13,5.93-5.92,5.68-5.69c1-1,2.06-2.09,3.12-3.1a9.57,9.57,0,0,1,1.47-1.05,2.39,2.39,0,0,1,1.54-.17,5,5,0,0,1,.92.23,3.5,3.5,0,0,1,.47.25,1.21,1.21,0,0,0,.14.1,2.85,2.85,0,0,1,.86.61v-1.73A3.22,3.22,0,0,0,145.14,108.06Z"/><path class="cls-2" d="M147.27,118.87l-5.81,5.81q-3.61,3.6-7.22,7.21l-5.74,5.74L124.14,142a3.6,3.6,0,0,1-1.78,1,5,5,0,0,1-.78.06,3.49,3.49,0,0,1-2.78-1.15l-10.45-10.44v13.36a3.22,3.22,0,0,0,3.22,3.21h33.57a3.21,3.21,0,0,0,3.21-3.21V117.94l-.16.12C147.88,118.32,147.56,118.59,147.27,118.87Z"/></g></g></g></svg>